HIERARCHY
ROOT root
{
	OFFSET	0	13.1	24.9
	CHANNELS 6  Xposition Yposition Zposition Xrotation Yrotation Zrotation
	JOINT spine_1
	{
		OFFSET	0	9.99999	0
		CHANNELS 3  Xrotation Yrotation Zrotation
		JOINT spine_2
		{
			OFFSET	0	112	-10
			CHANNELS 3  Xrotation Yrotation Zrotation
			JOINT spine_3
			{
				OFFSET	0	206.5	19.3
				CHANNELS 3  Xrotation Yrotation Zrotation
				JOINT spine_4
				{
					OFFSET	0	110.4	14.6
					CHANNELS 3  Xrotation Yrotation Zrotation
					JOINT neck_1
					{
						OFFSET	0	71.8	-50.3
						CHANNELS 3  Xrotation Yrotation Zrotation
						JOINT neck_2
						{
							OFFSET	0	86.2	-25.8
							CHANNELS 3  Xrotation Yrotation Zrotation
							JOINT head_ee
							{
								OFFSET	0	179.8	-8.7
								CHANNELS 3  Xrotation Yrotation Zrotation
								End Site
								{
									OFFSET	1	0	0
								}
							}
						}
					}
					JOINT left_clavicle
					{
						OFFSET	-43.2	22.4	-70.8
						CHANNELS 3  Xrotation Yrotation Zrotation
						JOINT left_shoulder
						{
							OFFSET	-93.9	-5.79999	48.7
							CHANNELS 3  Xrotation Yrotation Zrotation
							JOINT left_elbow
							{
								OFFSET	-291.4	-30.8	15.2
								CHANNELS 3  Xrotation Yrotation Zrotation
								JOINT left_lowarm_twist
								{
									OFFSET	-110.7	-3.89999	13.6
									CHANNELS 3  Xrotation Yrotation Zrotation
									JOINT left_hand
									{
										OFFSET	-110.7	-3.89999	13.6
										CHANNELS 3  Xrotation Yrotation Zrotation
										JOINT left_ee
										{
											OFFSET	-80.8	-5.10001	12.1
											CHANNELS 3  Xrotation Yrotation Zrotation
											End Site
											{
												OFFSET	1	0	0
											}
										}
									}
								}
							}
						}
					}
					JOINT right_clavicle
					{
						OFFSET	43.2	22.4	-70.8
						CHANNELS 3  Xrotation Yrotation Zrotation
						JOINT right_shoulder
						{
							OFFSET	93.9	-5.79999	48.7
							CHANNELS 3  Xrotation Yrotation Zrotation
							JOINT right_elbow
							{
								OFFSET	291.4	-30.8	15.2
								CHANNELS 3  Xrotation Yrotation Zrotation
								JOINT right_lowarm_twist
								{
									OFFSET	110.7	-3.89999	13.6
									CHANNELS 3  Xrotation Yrotation Zrotation
									JOINT right_hand
									{
										OFFSET	110.7	-3.89999	13.6
										CHANNELS 3  Xrotation Yrotation Zrotation
										JOINT right_ee
										{
											OFFSET	80.8	-5.10001	12.1
											CHANNELS 3  Xrotation Yrotation Zrotation
											End Site
											{
												OFFSET	1	0	0
											}
										}
									}
								}
							}
						}
					}
				}
			}
		}
	}
	JOINT left_hip
	{
		OFFSET	-82.8	-127.5	0.300001
		CHANNELS 3  Xrotation Yrotation Zrotation
		JOINT left_knee
		{
			OFFSET	-28.2	-396.7	2.2
			CHANNELS 3  Xrotation Yrotation Zrotation
			JOINT left_ankle
			{
				OFFSET	-11.7	-411.3	35.4
				CHANNELS 3  Xrotation Yrotation Zrotation
				JOINT left_toes
				{
					OFFSET	0	-60	-88.6
					CHANNELS 3  Xrotation Yrotation Zrotation
					JOINT left_foot_ee
					{
						OFFSET	-22.5	-16.5	-42.2
						CHANNELS 3  Xrotation Yrotation Zrotation
						End Site
						{
							OFFSET	1	0	0
						}
					}
				}
			}
		}
	}
	JOINT right_hip
	{
		OFFSET	82.8	-127.5	0.300001
		CHANNELS 3  Xrotation Yrotation Zrotation
		JOINT right_knee
		{
			OFFSET	28.2	-396.7	2.2
			CHANNELS 3  Xrotation Yrotation Zrotation
			JOINT right_ankle
			{
				OFFSET	11.7	-411.3	35.4
				CHANNELS 3  Xrotation Yrotation Zrotation
				JOINT right_toes
				{
					OFFSET	0	-60	-88.6
					CHANNELS 3  Xrotation Yrotation Zrotation
					JOINT right_foot_ee
					{
						OFFSET	22.5	-16.5	-42.2
						CHANNELS 3  Xrotation Yrotation Zrotation
						End Site
						{
							OFFSET	1	0	0
						}
					}
				}
			}
		}
	}
}
MOTION
Frames: 13
Frame Time: 0.02
2663.22 701.169 -1506.4 -10.1676 58.188 14.7518 0.75739 -0.322369 -1.24679 0.758222 -0.242386 -1.26477 0.763913 0.011667 -1.28773 0.76165 -0.191836 -1.27342 -10.1957 20.8257 2.64239 -10.7755 37.5818 8.18233 -0.0 0.0 -0.0 0.373164 8.97017 1.71523 7.98788 -9.42732 55.9436 4.0993 -63.7634 2.55044 -85.3103 -8.4907 5.17685 -6.45308 17.9026 -34.1061 -0.0 0.0 -0.0 4.29225 22.2037 -6.7022 -27.3527 26.0867 -64.4039 0.30428 8.57193 -0.0228041 29.5162 -0.0810562 3.72819 1.43663 -29.5312 -19.5522 0.0 0.0 0.0 -19.1678 33.1817 9.0764 2.99928 -0.13508 -0.440337 33.2021 -5.29232 -4.3001 -4.12283 0.0 0.0 -0.0 0.0 -0.0 43.9575 21.8733 -25.3624 0.438483 0.018304 0.0647986 -9.47049 -27.931 -1.49448 7.09302 -0.0 -0.0 0.0 0.0 0.0 
2632.92 699.839 -1509.11 -9.56729 59.3256 14.2914 0.488779 -0.375895 -1.28985 0.489657 -0.293063 -1.31115 0.496822 -0.0226241 -1.34331 0.494381 -0.234472 -1.32289 -9.16821 20.6178 1.41784 -9.58284 37.8183 6.55554 -0.0 0.0 -0.0 0.510559 9.4585 2.00685 7.83217 -9.46418 57.0756 4.13272 -63.9471 2.58044 -85.3384 -8.4942 5.17614 -6.22382 16.8844 -33.2491 -0.0 0.0 -0.0 4.49198 22.2985 -7.12569 -27.4645 25.8386 -64.291 0.384616 10.7873 -0.0363142 29.7527 -0.0739338 3.75756 1.60329 -29.6256 -20.5364 0.0 0.0 0.0 -20.6523 33.7443 9.62263 3.70226 -0.170068 -0.542501 32.9258 -4.58174 -4.26215 -4.17256 0.0 0.0 -0.0 0.0 -0.0 43.8648 22.0501 -25.1235 -5.00405 -0.173446 -0.748144 -7.82534 -27.6762 -1.23018 7.76428 -0.0 -0.0 0.0 0.0 0.0 
2607.91 699.583 -1513.09 -9.27512 59.6139 13.748 0.373062 -0.32282 -1.28395 0.373947 -0.240472 -1.30189 0.37987 0.0297345 -1.32357 0.37747 -0.179654 -1.31166 -6.90133 20.3597 1.4125 -6.90585 36.9146 5.62966 -0.0 0.0 -0.0 0.67772 9.59814 2.31111 6.04181 -9.94 57.7902 3.94012 -62.8543 2.40822 -85.5337 -8.51857 5.17115 -5.95923 13.0162 -34.3772 -0.0 0.0 -0.0 4.5842 22.3108 -7.32432 -26.8711 25.793 -65.333 0.323172 9.09551 -0.0257054 29.6561 -0.0768577 3.74557 1.80912 -29.6467 -21.7383 0.0 0.0 0.0 -22.0564 33.6233 9.66249 1.48309 -0.0639076 -0.218603 32.4819 -4.00418 -4.20938 -4.96892 0.0 0.0 -0.0 0.0 -0.0 44.21 22.0557 -25.3995 -9.8511 -0.27857 -1.48431 -8.12552 -25.4612 -1.26204 9.80879 -0.0 -0.0 0.0 0.0 0.0 
2587.29 700.138 -1511.87 -9.08955 60.4462 13.3828 -0.0256722 -0.325431 -1.30464 -0.0247577 -0.241762 -1.3227 -0.0185941 0.042059 -1.34395 -0.0210742 -0.170701 -1.33373 -7.26102 20.8013 1.67713 -7.32971 37.6291 6.12339 -0.0 0.0 -0.0 0.855621 9.55804 2.6153 5.66372 -9.00542 59.0506 3.91262 -62.6913 2.38377 -85.2122 -8.47844 5.17932 -5.72999 10.8945 -34.2175 -0.0 0.0 -0.0 4.89223 22.6172 -7.96305 -25.2334 26.0718 -64.5553 0.279897 7.89406 -0.0193123 30.745 -0.0427296 3.88047 2.04627 -29.7073 -23.1467 0.0 0.0 0.0 -22.2944 34.1162 9.88603 1.7937 -0.0780083 -0.264176 32.4636 -3.41642 -4.20028 -6.30568 0.0 0.0 -0.0 0.0 -0.0 43.3339 22.1108 -24.7917 -11.6972 -0.302175 -1.76658 -8.63121 -24.6103 -1.33569 10.0099 -0.0 -0.0 0.0 0.0 0.0 
2564.28 702.745 -1512.53 -8.94143 60.465 12.9064 0.00367797 -0.363085 -1.34763 0.00464585 -0.276604 -1.368 0.0118787 0.0167813 -1.39558 0.00921862 -0.203813 -1.38072 -6.32588 19.994 1.53861 -6.23808 36.0244 5.47295 -0.0 0.0 -0.0 0.774266 9.54642 2.47316 3.17283 -8.80332 60.5596 3.70781 -61.4181 2.20283 -85.3482 -8.49543 5.17589 -5.51642 7.23742 -35.1886 -0.0 0.0 -0.0 5.27945 21.4484 -8.91166 -25.7196 27.5744 -63.2331 0.183502 5.19413 -0.00832333 30.1965 -0.0602408 3.8126 2.19957 -29.9389 -24.105 0.0 0.0 0.0 -23.9599 35.0243 11.5596 1.08786 -0.0463229 -0.160506 32.196 -2.66677 -4.16435 -8.01711 0.0 0.0 -0.0 0.0 -0.0 43.2084 22.4404 -24.9441 -15.1759 -0.321896 -2.29988 -10.7088 -23.4466 -1.65245 9.5501 -0.0 -0.0 0.0 0.0 0.0 
2536.01 703.623 -1518.8 -7.59926 60.8745 11.4713 -0.267605 -0.308975 -1.20529 -0.266826 -0.231659 -1.22251 -0.261325 0.0361169 -1.24373 -0.263448 -0.160746 -1.23383 -5.70259 19.9261 0.841377 -5.51239 36.2754 4.54523 -0.0 0.0 -0.0 0.687526 9.47574 2.31565 1.52716 -8.54786 61.0422 3.34314 -58.8614 1.88649 -85.3869 -8.50025 5.17491 -5.35009 4.46756 -35.7498 -0.0 0.0 -0.0 5.40677 20.2712 -9.29247 -25.2285 29.0829 -63.129 0.198939 5.62839 -0.00977919 30.6184 -0.046827 3.86483 2.4304 -29.8339 -25.4711 0.0 0.0 0.0 -24.5691 34.5031 11.0875 -0.366498 0.0149177 0.0542645 32.0109 -2.16512 -4.14004 -9.17144 0.0 0.0 -0.0 0.0 -0.0 43.0469 22.6641 -25.2971 -20.0655 -0.294855 -3.04938 -11.9871 -20.5875 -1.83069 10.2608 -0.0 -0.0 0.0 0.0 0.0 
2508.36 705.194 -1525.74 -6.02546 61.5934 9.47136 -0.36547 -0.235051 -1.13288 -0.364771 -0.162492 -1.14553 -0.361039 0.0891733 -1.15356 -0.362884 -0.0941165 -1.15317 -5.30803 19.8998 0.606523 -5.05251 36.3192 4.16621 -0.0 0.0 -0.0 0.495127 10.3318 2.07246 -0.940352 -8.14201 62.4971 3.14524 -57.2943 1.7185 -85.2022 -8.47719 5.17957 -5.21264 3.55923 -35.2271 -0.0 0.0 -0.0 5.8054 19.2408 -10.2432 -24.4144 30.2605 -62.8601 0.216716 6.12765 -0.0115997 30.1437 -0.0618908 3.80606 2.38378 -30.0653 -25.2328 0.0 0.0 0.0 -23.9227 36.5584 10.0618 -3.55232 0.129874 0.529614 32.4483 -1.1689 -4.17532 -9.90741 0.0 0.0 -0.0 0.0 -0.0 40.6428 23.5921 -24.4851 -22.7563 -0.252728 -3.46008 -9.00255 -17.4653 -1.35621 12.2091 -0.0 -0.0 0.0 0.0 0.0 
2488.88 707.439 -1526.58 -5.34368 61.0145 8.6883 -0.444692 -0.172276 -1.05563 -0.444078 -0.104758 -1.06445 -0.441724 0.129501 -1.06172 -0.443295 -0.0397933 -1.06885 -4.46453 19.6592 0.97105 -4.0988 35.4307 4.21403 -0.0 0.0 -0.0 0.266399 9.69168 1.60912 -2.89196 -7.73916 63.6358 2.92719 -55.3976 1.53698 -85.1719 -8.4734 5.18033 -5.14047 1.4155 -36.0161 -0.0 0.0 -0.0 6.30836 19.2136 -11.3359 -23.2259 31.211 -61.8715 0.198375 5.61251 -0.00972386 30.3673 -0.0548556 3.83376 2.5524 -30.0573 -26.2523 0.0 0.0 0.0 -23.5441 36.8256 9.99079 -4.05948 0.145725 0.605833 34.1961 -1.09402 -4.34974 -10.5175 0.0 0.0 -0.0 0.0 -0.0 38.9125 24.2362 -24.3745 -23.7901 -0.231422 -3.61729 -6.67133 -15.9249 -0.997681 11.4306 -0.0 -0.0 0.0 0.0 0.0 
2455.96 712.075 -1527.04 -3.13647 60.6608 6.44592 -0.743964 -0.0933849 -0.882058 -0.743532 -0.0370702 -0.886212 -0.742664 0.161348 -0.87219 -0.743726 0.0215827 -0.886724 -4.0725 20.097 -1.01598 -3.55384 37.6414 2.09308 -0.0 0.0 -0.0 0.0630478 9.58609 1.24508 -6.53948 -5.97794 66.2886 2.75483 -53.7569 1.3965 -85.0838 -8.4624 5.18252 -5.21372 1.12905 -36.8097 -0.0 0.0 -0.0 6.38829 18.6198 -11.5563 -23.1124 32.3937 -61.5835 0.191905 5.43058 -0.00910126 30.2221 -0.0594379 3.81577 2.56066 -28.5479 -26.027 0.0 0.0 0.0 -21.0641 37.4414 8.42372 -5.47459 0.186377 0.819198 36.0983 -1.44365 -4.53631 -10.4958 0.0 0.0 -0.0 0.0 -0.0 33.6249 25.874 -22.7958 -22.2085 -0.262868 -3.37664 -1.39329 -14.428 -0.205663 9.58347 -0.0 -0.0 0.0 0.0 0.0 
2435.39 715.287 -1524.63 -1.31477 60.5938 4.5639 -0.894282 -0.0837229 -0.776998 -0.893946 -0.0341124 -0.780751 -0.89324 0.142748 -0.768349 -0.894063 0.0196139 -0.781249 -3.8342 20.6848 -1.50769 -3.21213 39.0471 1.57386 -0.0 0.0 -0.0 0.212569 9.8721 1.53627 -9.57547 -5.10667 67.356 2.55925 -51.7257 1.24081 -85.0284 -8.45548 5.18388 -5.09489 0.612384 -36.1427 -0.0 0.0 -0.0 6.14325 18.2834 -11.0515 -21.6485 34.0839 -61.6916 0.229321 6.48111 -0.0129839 30.207 -0.0599117 3.8139 2.84194 -28.457 -27.7697 0.0 0.0 0.0 -19.7902 38.2931 7.56422 -8.83588 0.261716 1.32944 37.32 -0.775447 -4.64399 -10.1587 0.0 0.0 -0.0 0.0 -0.0 29.956 27.098 -21.4261 -20.9086 -0.283732 -3.17827 1.79178 -13.5212 0.262125 8.9577 -0.0 -0.0 0.0 0.0 0.0 
2409.74 717.166 -1527.3 -0.0534366 58.625 2.94148 -0.96174 0.322587 -0.470494 -0.961686 0.351871 -0.449014 -0.964512 0.444474 -0.357588 -0.964486 0.382422 -0.423297 -4.91675 20.8109 -0.705937 -4.52662 38.896 2.84268 -0.0 0.0 -0.0 -0.0313912 10.9792 1.24556 -11.6935 -3.23566 68.8199 2.34849 -49.3115 1.07811 -83.173 -8.2228 5.22579 -5.50586 0.914511 -39.4466 -0.0 0.0 -0.0 6.6664 19.0615 -12.1259 -17.7659 35.4067 -62.4197 0.197665 5.59258 -0.00965458 31.2319 -0.02664 3.94058 3.21441 -28.2985 -30.135 0.0 0.0 0.0 -15.6097 38.5324 4.63811 -19.4501 0.301776 2.95521 37.8543 1.24614 -4.67837 -9.62368 0.0 0.0 -0.0 0.0 -0.0 26.1313 27.6368 -20.3759 -19.7322 -0.298729 -2.99838 6.09094 -11.1512 0.878039 9.06669 -0.0 -0.0 0.0 0.0 0.0 
2381.11 719.191 -1529.5 3.1649 59.637 -0.493716 -1.03396 0.319709 -0.436638 -1.03392 0.346845 -0.41541 -1.0365 0.432372 -0.325456 -1.03645 0.375546 -0.389656 -5.05517 20.4672 -1.92575 -4.6573 39.1748 1.5837 -0.0 0.0 -0.0 -0.263255 11.3537 0.89732 -14.8632 -4.03473 70.1725 2.02552 -45.0916 0.840968 -83.7561 -8.29608 5.21344 -5.54189 0.403679 -40.1004 -0.0 0.0 -0.0 6.19033 19.2775 -11.0746 -13.8008 37.1729 -64.1257 0.248441 7.01631 -0.0152308 30.5389 -0.0493858 3.85499 3.33783 -29.2002 -31.069 0.0 0.0 0.0 -15.5707 38.2253 2.82811 -25.8906 0.179404 3.93543 36.3956 1.46576 -4.5426 -8.22768 0.0 0.0 -0.0 0.0 -0.0 21.5356 28.7494 -18.4571 -21.6911 -0.271712 -3.29774 9.99611 -9.1115 1.4212 11.2828 -0.0 -0.0 0.0 0.0 0.0 
2355.62 722.079 -1532.73 7.30253 59.3864 -4.93746 -1.09824 0.346079 -0.261162 -1.09827 0.361996 -0.238611 -1.09987 0.407005 -0.149409 -1.0997 0.378301 -0.211813 -5.51772 20.4379 -2.35164 -5.19452 39.5057 1.32705 -0.0 0.0 -0.0 -0.384685 11.7247 0.738533 -17.2234 -3.606 71.3964 1.76352 -41.1365 0.661793 -83.3804 -8.24888 5.22148 -5.6494 0.358226 -41.0844 -0.0 0.0 -0.0 6.14117 19.4725 -10.952 -10.8005 38.0752 -64.7898 0.309721 8.72288 -0.0236222 30.9413 -0.0363043 3.90472 3.54333 -29.9644 -32.5123 0.0 0.0 0.0 -13.9341 38.2039 0.684282 -33.4517 -0.103546 5.06047 36.9645 2.19578 -4.59206 -6.75931 0.0 0.0 -0.0 0.0 -0.0 16.4484 29.5013 -16.4568 -23.0203 -0.247558 -3.50026 14.2876 -8.55703 1.99919 13.0877 -0.0 -0.0 0.0 0.0 0.0 
